<svg data-v-0dd9719b="" version="1.0" xmlns="http://www.w3.org/2000/svg" xmlns:xlink="http://www.w3.org/1999/xlink"
  width="100" height="100" vpreserveAspectRatio="xMidYMid meet" color-interpolation-filters="sRGB">
  <g data-v-0dd9719b="" fill="#333333" transform="translate(7.17314147949219,7.44773864746094)">
      <rect fill="#333333" fill-opacity="0" stroke-width="2" x="0" y="0" width="85.65371573834014"
        height="85.65371573834014"></rect> <svg viewBox="0 0 60 60" x="0" y="0" width="85.65371573834014"
        height="85.65371573834014">
        <g mask="url(#43e29123-082a-4a71-a5ae-c3a9968dd69c)">
          <g>
            <svg xmlns="http://www.w3.org/2000/svg" viewBox="0.00014 0.00014 45.43972 45.43972"
              style="overflow: visible;" width="60" height="60" x="0" y="0" filtersec="colorsf4399425226"
              filter="url(#m3rMgHs6HWCAbPNmEuh9K)">
              <g transform="scale(1, 1) skewX(0)">
                <path
                  d="M43.27 14.87L21.41.76a4.72 4.72 0 0 0-6.54 1.41L.76 24a4.72 4.72 0 0 0 1.41 6.54L24 44.68a4.72 4.72 0 0 0 6.54-1.41l14.14-21.86a4.72 4.72 0 0 0-1.41-6.54z"
                  opacity=".25" fill="url(#ab145c238-4fc1-42c1-9591-4f2ad3bf6f3b)" style="isolation:isolate"></path>
                <path d="M24.22 17.88a7.66 7.66 0 1 0-7.66-7.66 7.66 7.66 0 0 0 7.66 7.66z" opacity=".25"
                  fill="url(#b3245a826-21ea-4b0a-a017-9e4c10243ca4)" style="isolation:isolate"></path>
                <path
                  d="M34.36 11.78C28.5 7.34 19.73 3.26 14.43 2.49 6.74 1.38.67 2.5 1.65 15.53 2.79 30.75 7 44.1 14 44s51-8.78 20.36-32.22z"
                  opacity=".25" fill="url(#ce8470c5e-3ea4-44fa-935b-23c891ebb43e)" style="isolation:isolate"></path>
              </g>
            </svg>
          </g>
          <g filter="url(#colors7824235528)"><svg xmlns="http://www.w3.org/2000/svg"
              xmlns:xlink="http://www.w3.org/1999/xlink" viewBox="0 0 34.632000000000005 73.82797602822583" width="42"
              height="42" x="9" y="9">
              <path transform="translate(0.7200000000000001 52.42761290322582)"
                d="M19.87-17.28L19.87-17.28Q19.94-17.35 20.09-17.50L20.09-17.50Q20.52-18.00 21.10-18.50Q21.67-19.01 22.54-19.33Q23.40-19.66 24.70-19.66L24.70-19.66Q25.56-19.58 25.92-19.19Q26.28-18.79 26.32-18.14Q26.35-17.50 26.28-16.70L26.28-16.70Q26.21-15.98 25.99-14.62L25.99-14.62Q25.56-11.16 24.91-6.91L24.91-6.91Q26.42-8.14 28.66-9.94Q30.89-11.74 32.11-12.74L32.11-12.74Q32.40-13.03 32.62-13.14Q32.83-13.25 33.01-13.28Q33.19-13.32 33.34-13.28Q33.48-13.25 33.55-13.18Q33.62-13.10 33.66-13.03Q33.70-12.96 33.70-12.96L33.70-12.96Q33.70-12.96 33.73-12.89Q33.77-12.82 33.84-12.67Q33.91-12.53 33.91-12.31Q33.91-12.10 33.80-11.88Q33.70-11.66 33.48-11.38L33.48-11.38Q32.54-10.51 31.28-9.50Q30.02-8.50 28.66-7.42L28.66-7.42Q26.14-5.47 24.48-3.96L24.48-3.96Q24.26-1.94 23.83 0.79Q23.40 3.53 22.64 6.55Q21.89 9.58 20.74 12.38Q19.58 15.19 17.93 17.39Q16.27 19.58 14.04 20.66Q11.81 21.74 8.86 21.24L8.86 21.24Q7.13 20.95 6.41 19.98Q5.69 19.01 5.54 17.35L5.54 17.35Q5.40 15.91 5.80 14.00Q6.19 12.10 7.45 9.61Q8.71 7.13 11.12 4.10Q13.54 1.08 17.42-2.52L17.42-2.52L19.08-13.61Q15.84-9.00 13.14-6.30Q10.44-3.60 8.28-2.48Q6.12-1.37 4.32-1.58L4.32-1.58Q1.80-1.87 0.58-4.61Q-0.65-7.34-0.72-11.70Q-0.79-16.06 0.25-21.28Q1.30-26.50 3.31-31.79Q5.33-37.08 8.28-41.69Q11.23-46.30 15.05-49.46L15.05-49.46Q17.78-51.48 20.48-52.09Q23.18-52.70 25.42-52.20Q27.65-51.70 29.09-50.15Q30.53-48.60 30.71-46.22Q30.89-43.85 29.41-40.79Q27.94-37.73 24.48-34.20L24.48-34.20Q24.12-33.70 23.65-33.44Q23.18-33.19 22.75-33.41L22.75-33.41Q22.39-33.70 22.43-34.20Q22.46-34.70 23.26-35.50L23.26-35.50Q25.20-37.22 26.57-39.64Q27.94-42.05 28.40-44.35Q28.87-46.66 28.15-48.17L28.15-48.17Q27.65-49.10 26.78-49.18Q25.92-49.25 24.95-48.89Q23.98-48.53 23.22-48.02Q22.46-47.52 22.10-47.23L22.10-47.23Q18.94-44.93 16.42-40.97Q13.90-37.01 12.06-32.26Q10.22-27.50 9.07-22.79Q7.92-18.07 7.52-14.11Q7.13-10.15 7.49-7.85Q7.85-5.54 8.93-5.69L8.93-5.69Q9.79-5.69 11.09-6.84Q12.38-7.99 14.04-10.01Q15.70-12.02 17.71-14.54L17.71-14.54Q18.79-15.91 19.87-17.28ZM16.92 0.43L16.92 0.43Q13.68 3.67 11.66 6.48Q9.65 9.29 8.68 11.63Q7.70 13.97 7.52 15.59Q7.34 17.21 7.70 18.07Q8.06 18.94 8.78 18.79L8.78 18.79Q10.30 18.43 11.45 16.96Q12.60 15.48 13.50 13.14Q14.40 10.80 15.12 7.99Q15.84 5.18 16.49 2.30L16.49 2.30Q16.70 1.37 16.92 0.43Z">
              </path>
            </svg></g>
        </g>
        <mask id="43e29123-082a-4a71-a5ae-c3a9968dd69c">
          <g fill="white"><svg xmlns="http://www.w3.org/2000/svg" viewBox="0.00014 0.00014 45.43972 45.43972"
              style="overflow: visible;" width="60" height="60" x="0" y="0" filtersec="colorsf4399425226">
              <g transform="scale(1, 1) skewX(0)">
                <defs>
                  <linearGradient id="ab145c238-4fc1-42c1-9591-4f2ad3bf6f3b" x1="13.25" y1="10.61" x2="32.5" y2="40.43"
                    gradientTransform="matrix(1 0 0 -1 0 48)" gradientUnits="userSpaceOnUse">
                    <stop offset="0" stop-color="#7117ea"></stop>
                    <stop offset="1" stop-color="#3eaf7c"></stop>
                  </linearGradient>
                  <linearGradient id="b3245a826-21ea-4b0a-a017-9e4c10243ca4" x1="16.78" y1="36.18" x2="31.76" y2="39.41"
                    gradientTransform="matrix(1 0 0 -1 0 48)" gradientUnits="userSpaceOnUse">
                    <stop offset="0" stop-color="#7117ea" stop-opacity="0"></stop>
                    <stop offset="1" stop-color="#3eaf7c"></stop>
                  </linearGradient>
                  <linearGradient id="ce8470c5e-3ea4-44fa-935b-23c891ebb43e" x1="6.93" y1="9.84" x2="45.95" y2="56.1"
                    gradientTransform="matrix(1 0 0 -1 0 48)" gradientUnits="userSpaceOnUse">
                    <stop offset="0" stop-color="#7117ea" stop-opacity=".75"></stop>
                    <stop offset="1" stop-color="#3eaf7c" stop-opacity="0"></stop>
                  </linearGradient>
                </defs>
                <path
                  d="M43.27 14.87L21.41.76a4.72 4.72 0 0 0-6.54 1.41L.76 24a4.72 4.72 0 0 0 1.41 6.54L24 44.68a4.72 4.72 0 0 0 6.54-1.41l14.14-21.86a4.72 4.72 0 0 0-1.41-6.54z">
                </path>
                <path d="M24.22 17.88a7.66 7.66 0 1 0-7.66-7.66 7.66 7.66 0 0 0 7.66 7.66z"></path>
                <path
                  d="M34.36 11.78C28.5 7.34 19.73 3.26 14.43 2.49 6.74 1.38.67 2.5 1.65 15.53 2.79 30.75 7 44.1 14 44s51-8.78 20.36-32.22z">
                </path>
              </g>
            </svg></g>
          <g fill="black"><svg xmlns="http://www.w3.org/2000/svg" xmlns:xlink="http://www.w3.org/1999/xlink"
              viewBox="0 0 34.632000000000005 73.82797602822583" width="42" height="42" x="9" y="9">
              <path transform="translate(0.7200000000000001 52.42761290322582)"
                d="M19.87-17.28L19.87-17.28Q19.94-17.35 20.09-17.50L20.09-17.50Q20.52-18.00 21.10-18.50Q21.67-19.01 22.54-19.33Q23.40-19.66 24.70-19.66L24.70-19.66Q25.56-19.58 25.92-19.19Q26.28-18.79 26.32-18.14Q26.35-17.50 26.28-16.70L26.28-16.70Q26.21-15.98 25.99-14.62L25.99-14.62Q25.56-11.16 24.91-6.91L24.91-6.91Q26.42-8.14 28.66-9.94Q30.89-11.74 32.11-12.74L32.11-12.74Q32.40-13.03 32.62-13.14Q32.83-13.25 33.01-13.28Q33.19-13.32 33.34-13.28Q33.48-13.25 33.55-13.18Q33.62-13.10 33.66-13.03Q33.70-12.96 33.70-12.96L33.70-12.96Q33.70-12.96 33.73-12.89Q33.77-12.82 33.84-12.67Q33.91-12.53 33.91-12.31Q33.91-12.10 33.80-11.88Q33.70-11.66 33.48-11.38L33.48-11.38Q32.54-10.51 31.28-9.50Q30.02-8.50 28.66-7.42L28.66-7.42Q26.14-5.47 24.48-3.96L24.48-3.96Q24.26-1.94 23.83 0.79Q23.40 3.53 22.64 6.55Q21.89 9.58 20.74 12.38Q19.58 15.19 17.93 17.39Q16.27 19.58 14.04 20.66Q11.81 21.74 8.86 21.24L8.86 21.24Q7.13 20.95 6.41 19.98Q5.69 19.01 5.54 17.35L5.54 17.35Q5.40 15.91 5.80 14.00Q6.19 12.10 7.45 9.61Q8.71 7.13 11.12 4.10Q13.54 1.08 17.42-2.52L17.42-2.52L19.08-13.61Q15.84-9.00 13.14-6.30Q10.44-3.60 8.28-2.48Q6.12-1.37 4.32-1.58L4.32-1.58Q1.80-1.87 0.58-4.61Q-0.65-7.34-0.72-11.70Q-0.79-16.06 0.25-21.28Q1.30-26.50 3.31-31.79Q5.33-37.08 8.28-41.69Q11.23-46.30 15.05-49.46L15.05-49.46Q17.78-51.48 20.48-52.09Q23.18-52.70 25.42-52.20Q27.65-51.70 29.09-50.15Q30.53-48.60 30.71-46.22Q30.89-43.85 29.41-40.79Q27.94-37.73 24.48-34.20L24.48-34.20Q24.12-33.70 23.65-33.44Q23.18-33.19 22.75-33.41L22.75-33.41Q22.39-33.70 22.43-34.20Q22.46-34.70 23.26-35.50L23.26-35.50Q25.20-37.22 26.57-39.64Q27.94-42.05 28.40-44.35Q28.87-46.66 28.15-48.17L28.15-48.17Q27.65-49.10 26.78-49.18Q25.92-49.25 24.95-48.89Q23.98-48.53 23.22-48.02Q22.46-47.52 22.10-47.23L22.10-47.23Q18.94-44.93 16.42-40.97Q13.90-37.01 12.06-32.26Q10.22-27.50 9.07-22.79Q7.92-18.07 7.52-14.11Q7.13-10.15 7.49-7.85Q7.85-5.54 8.93-5.69L8.93-5.69Q9.79-5.69 11.09-6.84Q12.38-7.99 14.04-10.01Q15.70-12.02 17.71-14.54L17.71-14.54Q18.79-15.91 19.87-17.28ZM16.92 0.43L16.92 0.43Q13.68 3.67 11.66 6.48Q9.65 9.29 8.68 11.63Q7.70 13.97 7.52 15.59Q7.34 17.21 7.70 18.07Q8.06 18.94 8.78 18.79L8.78 18.79Q10.30 18.43 11.45 16.96Q12.60 15.48 13.50 13.14Q14.40 10.80 15.12 7.99Q15.84 5.18 16.49 2.30L16.49 2.30Q16.70 1.37 16.92 0.43Z">
              </path>
            </svg></g>
        </mask>
      </svg>
      <defs>
        <filter id="colors7824235528">
          <feColorMatrix type="matrix" values="0 0 0 0 0.99609375  0 0 0 0 0.99609375  0 0 0 0 0.99609375  0 0 0 1 0">
          </feColorMatrix>
        </filter>
        <filter id="colorsf4399425226">
          <feColorMatrix type="matrix" values="0 0 0 0 0.99609375  0 0 0 0 0.99609375  0 0 0 0 0.99609375  0 0 0 1 0">
          </feColorMatrix>
        </filter>
        <filter id="colorsb1357278350">
          <feColorMatrix type="matrix" values="0 0 0 0 0  0 0 0 0 0  0 0 0 0 0  0 0 0 1 0">
          </feColorMatrix>
        </filter>
      </defs>
    </g>
</svg>