<svg fill="none" stroke-linecap="square" stroke-miterlimit="10" viewBox="0 0 384 336" xmlns="http://www.w3.org/2000/svg" xmlns:xlink="http://www.w3.org/1999/xlink"><clipPath id="a"><path d="m0 0h384v336h-384z"/></clipPath><g clip-path="url(#a)"><path d="m0 0h384v336h-384z" fill="none"/><path d="m48.006233 28h288v33.574802h-288z" fill="none"/><path d="m144.34512 52.81928q-.796875-1.125-1.328125-2.703125-.515625-1.578125-.515625-3.4375 0-2.453125 1.125-4.65625 1.140625-2.21875 3.140625-3.859375l1.046875.953125q-1.765625 1.6875-2.6875 3.546875-.90625 1.859375-.90625 4.125 0 1.515625.359375 2.765625.375 1.25 1.03125 2.375zm5.174759-13.625h1.75l-2.046875 11.453125h-1.734375zm5.007889 4.40625q.4375-.640625 1.125-1 .6875-.375 1.578125-.375 1.234375 0 1.921875.6875.6875.671875.6875 1.765625 0 .609375-.09375 1.078125l-.875 4.890625h-1.71875l.84375-4.796875q.078125-.40625.078125-.703125 0-.609375-.40625-.96875-.40625-.359375-1.09375-.359375-.953125 0-1.640625.6875-.6875.671875-.859375 1.75l-.78125 4.390625h-1.734375l1.453125-8.15625h1.609375l-.1875 1.109375zm9.239395 7.171875q-.953125 0-1.53125-.515625-.5625-.53125-.5625-1.484375 0-.265625.078125-.796875l.703125-3.984375h-1.421875l.28125-1.5h1.421875l.421875-2.3125h1.703125l-.40625 2.3125h1.984375l-.265625 1.5h-2l-.671875 3.859375q-.046875.21875-.046875.5 0 .375.234375.59375.234375.21875.625.21875.53125 0 1.0625-.3125l-.296875 1.6875q-.5625.234375-1.3125.234375zm6.577011.125q-1.109375 0-1.96875-.5-.84375-.515625-1.296875-1.390625-.453125-.875-.453125-1.90625 0-1.265625.59375-2.390625.59375-1.125 1.65625-1.796875 1.078125-.6875 2.453125-.6875 1.0625 0 1.859375.484375.796875.46875 1.203125 1.25.421875.78125.421875 1.71875 0 .703125-.171875 1.25h-6.296875q-.03125.203125-.03125.359375.015625.953125.640625 1.515625.625.5625 1.515625.5625.90625 0 1.515625-.34375.609375-.34375 1.015625-1.03125l1.296875.71875q-.65625 1.09375-1.625 1.640625-.96875.546875-2.328125.546875zm2.84375-5.265625v-.140625q0-.734375-.5625-1.25-.546875-.53125-1.46875-.53125-.9375 0-1.625.5625-.6875.546875-.9375 1.359375zm3.8722687-3.140625h1.609375l-.1875 1.09375h.09375q.34375-.625 1.0625-.984375.71875-.359375 1.546875-.359375.59375 0 .953125.171875l-.3125 1.8125q-.46875-.3125-1.1875-.3125-.921875 0-1.65625.703125-.71875.703125-.890625 1.71875l-.75 4.3125h-1.734375zm7.3311462 8.40625q-.71875 0-1.328125-.328125-.609375-.328125-.96875-.890625-.359375-.578125-.359375-1.28125 0-1.359375.96875-2.15625.96875-.8125 2.71875-.8125.625 0 1.203125.140625.59375.125 1.046875.34375l.109375-.421875.03125-.40625q0-.609375-.53125-1-.515625-.390625-1.28125-.390625-1.3125 0-2.09375.984375l-1.21875-.890625q.609375-.75 1.515625-1.15625.921875-.40625 1.984375-.40625 1.53125 0 2.40625.75.875.734375.875 1.953125 0 .34375-.078125.828125l-.875 4.890625h-1.671875l.171875-.984375h-.09375q-.40625.5625-1.046875.90625-.625.328125-1.484375.328125zm.5-1.40625q1 0 1.703125-.640625.703125-.640625.859375-1.640625-.484375-.25-.9375-.359375-.4375-.125-1.078125-.125-.890625 0-1.421875.40625-.53125.390625-.53125 1.125 0 .5625.40625.90625.40625.328125 1 .328125zm9.389282 1.40625q-1.078125 0-1.9375-.5-.84375-.515625-1.3125-1.375-.453125-.875-.453125-1.90625 0-1.3125.59375-2.4375.609375-1.125 1.703125-1.78125 1.109375-.671875 2.53125-.671875 1.3125 0 2.1875.65625.890625.640625 1.1875 1.625l-1.59375.640625q-.234375-.625-.75-.96875-.515625-.359375-1.234375-.359375-.796875 0-1.453125.40625-.65625.40625-1.046875 1.125-.390625.71875-.390625 1.59375 0 1.03125.59375 1.703125.609375.671875 1.5625.671875.78125 0 1.375-.359375.609375-.359375.9375-1l1.421875.6875q-1.25 2.25-3.921875 2.25zm8.286621-.125q-.953125 0-1.53125-.515625-.5625-.53125-.5625-1.484375 0-.265625.078125-.796875l.703125-3.984375h-1.421875l.28125-1.5h1.421875l.421875-2.3125h1.703125l-.40625 2.3125h1.984375l-.265625 1.5h-2l-.671875 3.859375q-.046875.21875-.046875.5 0 .375.234375.59375.234375.21875.625.21875.53125 0 1.0625-.3125l-.296875 1.6875q-.5625.234375-1.3125.234375zm5.8832703-9.484375q-.5 0-.84375-.34375-.328125-.34375-.328125-.828125 0-.484375.328125-.8125.34375-.34375.84375-.34375.46875 0 .796875.34375.34375.328125.34375.8125 0 .484375-.34375.828125-.328125.34375-.796875.34375zm-1.296875 1.203125h1.71875l-1.4375 8.15625h-1.703125zm2.9847717 0h1.90625l1.21875 5.9375h.078125l3.359375-5.9375h1.9375l-4.84375 8.15625h-1.75zm11.064148-1.203125q-.5 0-.84375-.34375-.328125-.34375-.328125-.828125 0-.484375.328125-.8125.34375-.34375.84375-.34375.46875 0 .796875.34375.34375.328125.34375.8125 0 .484375-.34375.828125-.328125.34375-.796875.34375zm-1.296875 1.203125h1.71875l-1.4375 8.15625h-1.703125zm5.7016296 8.28125q-.953125 0-1.53125-.515625-.5625-.53125-.5625-1.484375 0-.265625.078125-.796875l.703125-3.984375h-1.421875l.28125-1.5h1.421875l.421875-2.3125h1.703125l-.40625 2.3125h1.984375l-.265625 1.5h-2l-.671875 3.859375q-.046875.21875-.046875.5 0 .375.234375.59375.234375.21875.625.21875.53125 0 1.0625-.3125l-.296875 1.6875q-.5625.234375-1.3125.234375zm5.5863953-.625-2.03125-7.65625h1.890625l1.375 5.5625h.0625l3.265625-5.5625h1.9375l-7.109375 11.609375h-1.859375zm5.345764 1.734375q1.78125-1.71875 2.6875-3.5625.921875-1.84375.921875-4.125 0-1.515625-.375-2.765625-.375-1.25-1.046875-2.359375l1.265625-.90625q.8125 1.140625 1.328125 2.71875.53125 1.578125.53125 3.421875 0 2.453125-1.140625 4.671875-1.125 2.21875-3.125 3.84375z" fill="#999"/><path d="m47.99836 67.2h288v96h-288z" fill="none"/><path d="m128.42107 83.66437h39.953125v11.265625h-28.078125v15.3125h25.265625v11.265625h-25.265625v25.171875h-11.875zm50.424026 0h11.875v63.015625h-11.875zm26.223999 0h21.296875q9.859375 0 17.15625 3.96875 7.296875 3.953125 11.25 11.09375 3.96875 7.125 3.96875 16.453125 0 9.328125-3.96875 16.453125-3.953125 7.125-11.25 11.09375-7.296875 3.953125-17.15625 3.953125h-21.296875zm20.765625 51.75q10.203125 0 15.5625-5.40625 5.375-5.421875 5.375-14.828125 0-9.421875-5.375-14.828125-5.359375-5.421875-15.5625-5.421875h-8.890625v40.484375z" fill="#2979ff"/><path d="m43.2 220.80136h96v38.393707h-96z" fill="#0cce6b" fill-rule="evenodd"/><path d="m77.08874 244.70572q-1.234375 0-2.265625-.578125-1.03125-.59375-1.640625-1.609375-.59375-1.03125-.59375-2.296875 0-1.265625.59375-2.28125.609375-1.03125 1.640625-1.609375 1.03125-.59375 2.265625-.59375.984375 0 1.8125.34375.828125.34375 1.390625.96875l-.90625.921875q-.875-.984375-2.296875-.984375-.84375 0-1.578125.40625-.734375.390625-1.171875 1.140625-.421875.734375-.421875 1.6875 0 .953125.4375 1.703125.4375.734375 1.15625 1.140625.734375.390625 1.578125.390625 1.359375 0 2.21875-.84375.265625-.265625.453125-.671875.1875-.40625.265625-.90625h-2.953125v-1.15625h4.171875q.078125.40625.078125.6875 0 .828125-.265625 1.5625-.25.734375-.796875 1.296875-.578125.625-1.390625.953125-.796875.328125-1.78125.328125zm9.765564 0q-1.234375 0-2.265625-.59375-1.015625-.609375-1.59375-1.625-.578125-1.03125-.578125-2.265625 0-1.234375.578125-2.25.578125-1.03125 1.59375-1.625 1.03125-.609375 2.265625-.609375 1.25 0 2.265625.609375 1.015625.59375 1.59375 1.625.59375 1.015625.59375 2.25 0 1.234375-.59375 2.265625-.578125 1.015625-1.59375 1.625-1.015625.59375-2.265625.59375zm0-1.25q.875 0 1.578125-.40625.71875-.421875 1.125-1.15625.421875-.734375.421875-1.671875 0-.9375-.421875-1.671875-.40625-.734375-1.125-1.140625-.703125-.421875-1.578125-.421875-.859375 0-1.578125.421875-.703125.40625-1.125 1.140625-.40625.734375-.40625 1.671875 0 .9375.40625 1.671875.421875.734375 1.125 1.15625.71875.40625 1.578125.40625zm9.864075 1.25q-1.234375 0-2.265625-.59375-1.015625-.609375-1.59375-1.625-.578125-1.03125-.578125-2.265625 0-1.234375.578125-2.25.578125-1.03125 1.59375-1.625 1.03125-.609375 2.265625-.609375 1.25 0 2.265625.609375 1.015625.59375 1.59375 1.625.59375 1.015625.59375 2.25 0 1.234375-.59375 2.265625-.578125 1.015625-1.59375 1.625-1.015625.59375-2.265625.59375zm0-1.25q.875 0 1.578125-.40625.71875-.421875 1.125-1.15625.421875-.734375.421875-1.671875 0-.9375-.421875-1.671875-.40625-.734375-1.125-1.140625-.703125-.421875-1.578125-.421875-.859375 0-1.578125.421875-.703125.40625-1.125 1.140625-.40625.734375-.40625 1.671875 0 .9375.40625 1.671875.421875.734375 1.125 1.15625.71875.40625 1.578125.40625zm5.968445-7.53125h2.75q1.328125 0 2.3125.546875 1 .53125 1.53125 1.515625.53125.96875.53125 2.234375 0 1.265625-.53125 2.25-.53125.96875-1.53125 1.515625-.984375.53125-2.3125.53125h-2.75zm2.71875 7.34375q1.453125 0 2.265625-.8125.8125-.8125.8125-2.234375 0-1.421875-.8125-2.234375-.8125-.8125-2.265625-.8125h-1.390625v6.09375z" fill="#000"/><path d="m139.2 220.80132h105.60631v38.393692h-105.60631z" fill="#ffa400" fill-rule="evenodd"/><path d="m173.98776 228.92441h1.5625l3.890625 6.3125h.0625l-.0625-1.65625v-4.65625h1.3125v8.59375h-1.375l-4.078125-6.640625h-.078125l.078125 1.65625v4.984375h-1.3125zm8.700058 0h5.21875v1.25h-3.890625v2.421875h3.5v1.25h-3.5v2.421875h3.890625v1.25h-5.21875zm6.864044 0h5.21875v1.25h-3.890625v2.421875h3.5v1.25h-3.5v2.421875h3.890625v1.25h-5.21875zm6.864044 0h2.75q1.328125 0 2.3125.546875 1 .53125 1.53125 1.515625.53125.96875.53125 2.234375 0 1.265625-.53125 2.25-.53125.96875-1.53125 1.515625-.984375.53125-2.3125.53125h-2.75zm2.71875 7.34375q1.453125 0 2.265625-.8125.8125-.8125.8125-2.234375 0-1.421875-.8125-2.234375-.8125-.8125-2.265625-.8125h-1.390625v6.09375zm8.42131 1.4375q-1.0625 0-1.921875-.625-.84375-.625-1.1875-1.75l1.25-.5q.1875.71875.671875 1.171875.5.453125 1.203125.453125.640625 0 1.09375-.328125.453125-.34375.453125-.921875 0-.546875-.40625-.890625-.390625-.359375-1.359375-.703125l-.546875-.1875q-.875-.3125-1.453125-.859375-.578125-.5625-.578125-1.484375 0-.640625.34375-1.171875.34375-.546875.953125-.859375.625-.3125 1.40625-.3125 1.109375 0 1.78125.546875.671875.546875.90625 1.21875l-1.1875.515625q-.109375-.4375-.5-.75-.375-.3125-1-.3125-.578125 0-1 .3125-.40625.3125-.40625.796875 0 .4375.359375.734375.375.296875 1.140625.5625l.5625.1875q1.09375.390625 1.6875 1 .609375.609375.609375 1.625 0 .84375-.421875 1.421875-.421875.5625-1.09375.84375-.671875.265625-1.359375.265625z" fill="#000"/><path d="m150.18561 242.92441h1.328125v8.59375h-1.328125zm3.2520294 0h1.78125l2.5 6.546875h.078125l2.515625-6.546875h1.78125v8.59375h-1.296875v-4.859375l.078125-1.53125h-.078125l-2.515625 6.390625h-1.03125l-2.515625-6.390625h-.0625l.0625 1.53125v4.859375h-1.296875zm10.596069 0h2.953125q.765625 0 1.40625.34375.640625.328125 1.015625.9375.390625.59375.390625 1.34375 0 .765625-.390625 1.359375-.375.59375-1.015625.9375-.640625.328125-1.40625.328125h-1.625v3.34375h-1.328125zm2.984375 4.015625q.671875 0 1.0625-.40625.40625-.421875.40625-.984375 0-.546875-.40625-.953125-.390625-.421875-1.0625-.421875h-1.65625v2.765625zm4.131668-4.015625h3.015625q.78125 0 1.40625.34375.640625.328125 1 .9375.359375.59375.359375 1.34375 0 .875-.5625 1.546875-.546875.65625-1.390625.875l-.015625.0625 2.375 3.40625v.078125h-1.53125l-2.28125-3.375h-1.046875v3.375h-1.328125zm2.984375 4.015625q.625 0 1.046875-.390625.421875-.40625.421875-1 0-.5625-.390625-.96875-.390625-.421875-1.03125-.421875h-1.703125v2.78125zm8.351303 4.765625q-1.234375 0-2.265625-.59375-1.015625-.609375-1.59375-1.625-.578125-1.03125-.578125-2.265625 0-1.234375.578125-2.25.578125-1.03125 1.59375-1.625 1.03125-.609375 2.265625-.609375 1.25 0 2.265625.609375 1.015625.59375 1.59375 1.625.59375 1.015625.59375 2.25 0 1.234375-.59375 2.265625-.578125 1.015625-1.59375 1.625-1.015625.59375-2.265625.59375zm0-1.25q.875 0 1.578125-.40625.71875-.421875 1.125-1.15625.421875-.734375.421875-1.671875 0-.9375-.421875-1.671875-.40625-.734375-1.125-1.140625-.703125-.421875-1.578125-.421875-.859375 0-1.578125.421875-.703125.40625-1.125 1.140625-.40625.734375-.40625 1.671875 0 .9375.40625 1.671875.421875.734375 1.125 1.15625.71875.40625 1.578125.40625zm4.811569-7.53125h1.4375l1.9375 5.71875.3125.96875h.0625l.328125-.96875 2.03125-5.71875h1.4375l-3.140625 8.59375h-1.359375zm8.680923 0h5.21875v1.25h-3.890625v2.421875h3.5v1.25h-3.5v2.421875h3.890625v1.25h-5.21875zm6.864044 0h1.78125l2.5 6.546875h.078125l2.515625-6.546875h1.78125v8.59375h-1.296875v-4.859375l.078125-1.53125h-.078125l-2.515625 6.390625h-1.03125l-2.515625-6.390625h-.0625l.0625 1.53125v4.859375h-1.296875zm10.596069 0h5.21875v1.25h-3.890625v2.421875h3.5v1.25h-3.5v2.421875h3.890625v1.25h-5.21875zm6.864044 0h1.5625l3.890625 6.3125h.0625l-.0625-1.65625v-4.65625h1.3125v8.59375h-1.375l-4.078125-6.640625h-.078125l.078125 1.65625v4.984375h-1.3125zm10.450058 1.25h-2.40625v-1.25h6.125v1.25h-2.390625v7.34375h-1.328125z" fill="#000"/><path d="m243.84 220.8h96v38.393692h-96z" fill="#ff4e42" fill-rule="evenodd"/><path d="m275.72064 235.9231h2.953125q.765625 0 1.40625.34375.640625.328125 1.015625.9375.390625.59375.390625 1.34375 0 .765625-.390625 1.359375-.375.59375-1.015625.9375-.640625.328125-1.40625.328125h-1.625v3.34375h-1.328125zm2.984375 4.015625q.671875 0 1.0625-.40625.40625-.421875.40625-.984375 0-.546875-.40625-.953125-.390625-.421875-1.0625-.421875h-1.65625v2.765625zm8.039276 4.765625q-1.234375 0-2.265625-.59375-1.015625-.609375-1.59375-1.625-.578125-1.03125-.578125-2.265625 0-1.234375.578125-2.25.578125-1.03125 1.59375-1.625 1.03125-.609375 2.265625-.609375 1.25 0 2.265625.609375 1.015625.59375 1.59375 1.625.59375 1.015625.59375 2.25 0 1.234375-.59375 2.265625-.578125 1.015625-1.59375 1.625-1.015625.59375-2.265625.59375zm0-1.25q.875 0 1.578125-.40625.71875-.421875 1.125-1.15625.421875-.734375.421875-1.671875 0-.9375-.421875-1.671875-.40625-.734375-1.125-1.140625-.703125-.421875-1.578125-.421875-.859375 0-1.578125.421875-.703125.40625-1.125 1.140625-.40625.734375-.40625 1.671875 0 .9375.40625 1.671875.421875.734375 1.125 1.15625.71875.40625 1.578125.40625zm9.864075 1.25q-1.234375 0-2.265625-.59375-1.015625-.609375-1.59375-1.625-.578125-1.03125-.578125-2.265625 0-1.234375.578125-2.25.578125-1.03125 1.59375-1.625 1.03125-.609375 2.265625-.609375 1.25 0 2.265625.609375 1.015625.59375 1.59375 1.625.59375 1.015625.59375 2.25 0 1.234375-.59375 2.265625-.578125 1.015625-1.59375 1.625-1.015625.59375-2.265625.59375zm0-1.25q.875 0 1.578125-.40625.71875-.421875 1.125-1.15625.421875-.734375.421875-1.671875 0-.9375-.421875-1.671875-.40625-.734375-1.125-1.140625-.703125-.421875-1.578125-.421875-.859375 0-1.578125.421875-.703125.40625-1.125 1.140625-.40625.734375-.40625 1.671875 0 .9375.40625 1.671875.421875.734375 1.125 1.15625.71875.40625 1.578125.40625zm5.968445-7.53125h3.015625q.78125 0 1.40625.34375.640625.328125 1 .9375.359375.59375.359375 1.34375 0 .875-.5625 1.546875-.546875.65625-1.390625.875l-.015625.0625 2.375 3.40625v.078125h-1.53125l-2.28125-3.375h-1.046875v3.375h-1.328125zm2.984375 4.015625q.625 0 1.046875-.390625.421875-.40625.421875-1 0-.5625-.390625-.96875-.390625-.421875-1.03125-.421875h-1.703125v2.78125z" fill="#000"/><path d="m196.8 283.2h95.999985v28.409424h-95.999985z" fill="none"/><path d="m221.31894 303.5147q-1.25 0-2.296875-.703125-1.046875-.71875-1.453125-2.09375l1.609375-.65625q.234375.859375.78125 1.328125.546875.46875 1.359375.46875.8125 0 1.40625-.5.59375-.5.59375-1.265625 0-.765625-.625-1.25-.609375-.5-1.5625-.5h-.9375v-1.59375h.859375q.796875 0 1.328125-.421875.546875-.421875.546875-1.1875 0-.65625-.484375-1.0625-.484375-.40625-1.234375-.40625-.734375 0-1.171875.390625-.4375.390625-.625.96875l-1.578125-.65625q.328125-.921875 1.171875-1.609375.859375-.703125 2.203125-.703125 1 0 1.78125.390625.796875.375 1.234375 1.0625.453125.671875.453125 1.515625 0 .859375-.421875 1.46875-.421875.609375-1.03125.921875v.078125q.8125.34375 1.3125 1.03125.515625.6875.515625 1.640625 0 .96875-.484375 1.734375-.484375.75-1.34375 1.1875-.84375.421875-1.90625.421875zm9.722641 0q-1.34375 0-2.359375-.75-1.015625-.75-1.578125-2.046875-.546875-1.3125-.546875-2.921875 0-1.625.546875-2.921875.5625-1.3125 1.578125-2.0625 1.015625-.75 2.359375-.75 1.34375 0 2.359375.75 1.03125.75 1.578125 2.0625.5625 1.296875.5625 2.921875 0 1.609375-.5625 2.921875-.546875 1.296875-1.578125 2.046875-1.015625.75-2.359375.75zm0-1.625q.84375 0 1.46875-.53125.625-.546875.953125-1.46875.328125-.921875.328125-2.09375 0-1.171875-.328125-2.109375-.328125-.9375-.953125-1.453125-.625-.53125-1.46875-.53125-.828125 0-1.453125.53125-.609375.515625-.9375 1.453125-.328125.9375-.328125 2.109375 0 1.171875.328125 2.09375.328125.921875.9375 1.46875.625.53125 1.453125.53125zm10.560028 1.625q-1.34375 0-2.359375-.75-1.015625-.75-1.578125-2.046875-.546875-1.3125-.546875-2.921875 0-1.625.546875-2.921875.5625-1.3125 1.578125-2.0625 1.015625-.75 2.359375-.75 1.34375 0 2.359375.75 1.03125.75 1.578125 2.0625.5625 1.296875.5625 2.921875 0 1.609375-.5625 2.921875-.546875 1.296875-1.578125 2.046875-1.015625.75-2.359375.75zm0-1.625q.84375 0 1.46875-.53125.625-.546875.953125-1.46875.328125-.921875.328125-2.09375 0-1.171875-.328125-2.109375-.328125-.9375-.953125-1.453125-.625-.53125-1.46875-.53125-.828125 0-1.453125.53125-.609375.515625-.9375 1.453125-.328125.9375-.328125 2.109375 0 1.171875.328125 2.09375.328125.921875.9375 1.46875.625.53125 1.453125.53125zm10.03804-6.78125h1.625v1.109375h.09375q.375-.59375 1.046875-.984375.671875-.390625 1.46875-.390625.875 0 1.515625.421875.65625.421875.953125 1.109375.421875-.6875 1.109375-1.109375.703125-.421875 1.65625-.421875 1.40625 0 2.125.859375.71875.859375.71875 2.328125v5.234375h-1.71875v-4.9375q0-1.890625-1.59375-1.890625-.875 0-1.4375.703125-.546875.703125-.546875 1.75v4.375h-1.71875v-4.9375q0-1.890625-1.640625-1.890625-.84375 0-1.390625.71875-.546875.703125-.546875 1.75v4.359375h-1.71875zm17.176758 8.40625q-1.390625 0-2.296875-.59375-.90625-.609375-1.265625-1.59375l1.546875-.671875q.28125.65625.8125 1 .53125.34375 1.203125.34375.6875 0 1.140625-.25.46875-.25.46875-.734375 0-.453125-.390625-.71875-.390625-.265625-1.21875-.453125l-.96875-.21875q-.984375-.25-1.625-.859375-.640625-.609375-.640625-1.53125 0-.703125.421875-1.25.421875-.546875 1.140625-.84375.71875-.296875 1.5625-.296875 1.15625 0 2 .453125.859375.453125 1.25 1.3125l-1.5.671875q-.484375-.96875-1.734375-.96875-.609375 0-1.015625.25-.40625.25-.40625.640625 0 .71875 1.25 1.03125l1.171875.296875q1.203125.296875 1.8125.90625.625.609375.625 1.515625 0 .765625-.4375 1.34375-.4375.578125-1.21875.90625-.765625.3125-1.6875.3125z" fill="#434343"/><path d="m91.2 283.59363h96v28.409424h-96z" fill="none"/><path d="m115.89456 295.03336-1.796875 1.28125-.875-1.328125 3.171875-2.265625h1.234375v10.9375h-1.734375zm8.387009 8.875q-1.34375 0-2.359375-.75-1.015625-.75-1.578125-2.046875-.546875-1.3125-.546875-2.921875 0-1.625.546875-2.921875.5625-1.3125 1.578125-2.0625 1.015625-.75 2.359375-.75 1.34375 0 2.359375.75 1.03125.75 1.578125 2.0625.5625 1.296875.5625 2.921875 0 1.609375-.5625 2.921875-.546875 1.296875-1.578125 2.046875-1.015625.75-2.359375.75zm0-1.625q.84375 0 1.46875-.53125.625-.546875.953125-1.46875.328125-.921875.328125-2.09375 0-1.171875-.328125-2.109375-.328125-.9375-.953125-1.453125-.625-.53125-1.46875-.53125-.828125 0-1.453125.53125-.609375.515625-.9375 1.453125-.328125.9375-.328125 2.109375 0 1.171875.328125 2.09375.328125.921875.9375 1.46875.625.53125 1.453125.53125zm10.560028 1.625q-1.34375 0-2.359375-.75-1.015625-.75-1.578125-2.046875-.546875-1.3125-.546875-2.921875 0-1.625.546875-2.921875.5625-1.3125 1.578125-2.0625 1.015625-.75 2.359375-.75 1.34375 0 2.359375.75 1.03125.75 1.578125 2.0625.5625 1.296875.5625 2.921875 0 1.609375-.5625 2.921875-.546875 1.296875-1.578125 2.046875-1.015625.75-2.359375.75zm0-1.625q.84375 0 1.46875-.53125.625-.546875.953125-1.46875.328125-.921875.328125-2.09375 0-1.171875-.328125-2.109375-.328125-.9375-.953125-1.453125-.625-.53125-1.46875-.53125-.828125 0-1.453125.53125-.609375.515625-.9375 1.453125-.328125.9375-.328125 2.109375 0 1.171875.328125 2.09375.328125.921875.9375 1.46875.625.53125 1.453125.53125zm10.03804-6.78125h1.625v1.109375h.09375q.375-.59375 1.046875-.984375.671875-.390625 1.46875-.390625.875 0 1.515625.421875.65625.421875.953125 1.109375.421875-.6875 1.109375-1.109375.703125-.421875 1.65625-.421875 1.40625 0 2.125.859375.71875.859375.71875 2.328125v5.234375h-1.71875v-4.9375q0-1.890625-1.59375-1.890625-.875 0-1.4375.703125-.546875.703125-.546875 1.75v4.375h-1.71875v-4.9375q0-1.890625-1.640625-1.890625-.84375 0-1.390625.71875-.546875.703125-.546875 1.75v4.359375h-1.71875zm17.176773 8.40625q-1.390625 0-2.296875-.59375-.90625-.609375-1.265625-1.59375l1.546875-.671875q.28125.65625.8125 1 .53125.34375 1.203125.34375.6875 0 1.140625-.25.46875-.25.46875-.734375 0-.453125-.390625-.71875-.390625-.265625-1.21875-.453125l-.96875-.21875q-.984375-.25-1.625-.859375-.640625-.609375-.640625-1.53125 0-.703125.421875-1.25.421875-.546875 1.140625-.84375.71875-.296875 1.5625-.296875 1.15625 0 2 .453125.859375.453125 1.25 1.3125l-1.5.671875q-.484375-.96875-1.734375-.96875-.609375 0-1.015625.25-.40625.25-.40625.640625 0 .71875 1.25 1.03125l1.171875.296875q1.203125.296875 1.8125.90625.625.609375.625 1.515625 0 .765625-.4375 1.34375-.4375.578125-1.21875.90625-.765625.3125-1.6875.3125z" fill="#434343"/><path d="m139.2 285.0754v-28.566925" fill="none"/><path d="m139.2 285.0754v-20.986938" fill-rule="evenodd" stroke="#434343" stroke-linecap="butt" stroke-linejoin="round" stroke-width="2"/><path d="m139.2 257.50848c1.8170166 0 3.2899933 1.4729614 3.2899933 3.289978s-1.4729767 3.2900085-3.2899933 3.2900085-3.2899933-1.472992-3.2899933-3.2900085c0-1.8170166 1.4729767-3.289978 3.2899933-3.289978z" fill="#434343" stroke="#434343" stroke-linecap="butt" stroke-width="2"/><path d="m48.00492 158.4h288v28.787415h-288z" fill="none"/><path d="m121.34873 165.6812h8.281258v1.609375h-6.5781326v4.90625h5.9375076v1.59375h-5.9375076v6.203125h-1.703125v-14.3125zm11.091881 2.234375q-.5 0-.859375-.359375-.359375-.359375-.359375-.859375 0-.515625.359375-.859375.359375-.359375.859375-.359375.515625 0 .859375.359375.359375.34375.359375.859375 0 .5-.359375.859375-.34375.359375-.859375.359375zm-.84375 1.875h1.703125v10.203125h-1.703125zm4.363739 0h1.609375v1.640625h.078125q.3125-.84375 1.171875-1.390625.859375-.546875 1.796875-.546875.703125 0 1.203125.203125v1.84375q-.640625-.328125-1.4375-.328125-.75 0-1.375.421875-.609375.421875-.984375 1.140625-.375.703125-.375 1.515625v5.703125h-1.6875zm10.646881 10.515625q-1.625 0-2.734375-.765625-1.09375-.765625-1.5625-1.96875l1.53125-.671875q.375.90625 1.125 1.40625.75.5 1.640625.5.96875 0 1.640625-.375.6875-.390625.6875-1.125 0-.625-.546875-1.015625-.53125-.390625-1.6875-.671875l-1.25-.328125q-1.21875-.296875-2-1.015625-.78125-.71875-.78125-1.859375 0-.875.53125-1.546875.53125-.671875 1.40625-1.03125.890625-.359375 1.90625-.359375 1.34375 0 2.390625.578125 1.046875.578125 1.484375 1.625l-1.46875.671875q-.6875-1.359375-2.421875-1.359375-.84375 0-1.484375.390625-.625.390625-.625.984375 0 .5625.4375.921875.453125.34375 1.328125.5625l1.484375.375q1.5.390625 2.25 1.140625.765625.75.765625 1.828125 0 .9375-.546875 1.65625-.53125.703125-1.453125 1.078125-.921875.375-2.046875.375zm9.734985-.15625q-.625 0-1.15625-.1875-.53125-.203125-.890625-.546875-.796875-.765625-.796875-2.109375v-5.96875h-1.78125v-1.546875h1.78125v-2.875h1.703125v2.875h2.5v1.546875h-2.5v5.5625q0 .828125.3125 1.234375.375.4375 1.09375.4375.625 0 1.125-.34375v1.671875q-.296875.140625-.609375.1875-.3125.0625-.78125.0625zm8.3662414-14.46875h1.703125v14.3125h-1.703125zm4.571869 4.109375h1.609375v1.5h.078125q.421875-.75 1.34375-1.28125.921875-.53125 1.96875-.53125 1.828125 0 2.796875 1.078125.984375 1.0625.984375 2.890625v6.546875h-1.703125v-6.28125q0-1.421875-.6875-2.0625-.671875-.640625-1.859375-.640625-.8125 0-1.46875.46875-.640625.453125-1.015625 1.203125-.359375.75-.359375 1.578125v5.734375h-1.6875zm11.141861 0h1.609375v1.515625h.078125q.46875-.765625 1.390625-1.296875.9375-.53125 2.09375-.53125 1.375 0 2.484375.703125 1.109375.6875 1.75 1.9375.640625 1.234375.640625 2.78125 0 1.546875-.640625 2.78125-.640625 1.234375-1.75 1.9375-1.109375.6875-2.484375.6875-1.15625 0-2.09375-.515625-.921875-.53125-1.390625-1.296875h-.078125l.078125 1.40625v4.40625h-1.6875zm5 8.984375q.875 0 1.65625-.484375.78125-.484375 1.234375-1.359375.46875-.875.46875-2.03125 0-1.171875-.46875-2.046875-.453125-.875-1.234375-1.359375-.78125-.484375-1.65625-.484375-.90625 0-1.6875.484375-.765625.484375-1.234375 1.359375-.46875.875-.46875 2.046875 0 1.15625.46875 2.03125.46875.875 1.234375 1.359375.78125.484375 1.6875.484375zm10.62561 1.53125q-1.828125 0-2.796875-1.078125-.96875-1.078125-.96875-3.015625v-6.421875h1.6875v6.15625q0 1.46875.65625 2.15625.671875.671875 1.78125.671875.875 0 1.53125-.453125.671875-.46875 1.046875-1.203125.375-.75.375-1.5625v-5.765625h1.6875v10.203125h-1.609375v-1.484375h-.078125q-.421875.765625-1.34375 1.28125-.921875.515625-1.96875.515625zm11.554367-.15625q-.625 0-1.15625-.1875-.53125-.203125-.890625-.546875-.796875-.765625-.796875-2.109375v-5.96875h-1.78125v-1.546875h1.78125v-2.875h1.703125v2.875h2.5v1.546875h-2.5v5.5625q0 .828125.3125 1.234375.375.4375 1.09375.4375.625 0 1.125-.34375v1.671875q-.296875.140625-.609375.1875-.3125.0625-.78125.0625zm8.3662414-14.46875h4.328125q2.203125 0 3.84375.90625 1.640625.90625 2.515625 2.53125.875 1.609375.875 3.71875 0 2.09375-.875 3.71875-.875 1.625-2.515625 2.53125-1.640625.90625-3.84375.90625h-4.328125zm4.328125 12.6875q2.53125 0 4.015625-1.453125 1.5-1.46875 1.5-4.078125 0-2.625-1.5-4.078125-1.484375-1.46875-4.015625-1.46875h-2.625v11.078125zm13.634979 1.9375q-1.453125 0-2.625-.6875-1.15625-.703125-1.8125-1.9375-.640625-1.234375-.640625-2.765625 0-1.46875.609375-2.71875.609375-1.25 1.734375-1.984375 1.140625-.734375 2.59375-.734375 1.5 0 2.59375.671875 1.109375.65625 1.703125 1.84375.59375 1.1875.59375 2.703125 0 .234375-.046875.515625h-8.078125q.0625 1.15625.5625 1.96875.5.796875 1.265625 1.203125.765625.390625 1.609375.390625 2 0 3.015625-1.84375l1.4375.703125q-.625 1.21875-1.765625 1.953125-1.140625.71875-2.75.71875zm2.9375-6.5q-.03125-.625-.359375-1.265625-.3125-.640625-1-1.078125-.671875-.453125-1.71875-.453125-1.203125 0-2.046875.78125-.828125.765625-1.09375 2.015625zm3.7912445-8.125h1.6875v14.3125h-1.6875zm7.369995 14.625q-1.109375 0-2-.4375-.875-.4375-1.359375-1.203125-.46875-.765625-.46875-1.75 0-1.625 1.21875-2.53125 1.21875-.90625 3.078125-.90625.921875 0 1.703125.203125.796875.1875 1.21875.453125v-.625q0-1.140625-.8125-1.828125-.796875-.6875-2.015625-.6875-.84375 0-1.578125.375-.71875.359375-1.140625 1.03125l-1.28125-.96875q.609375-.921875 1.65625-1.4375 1.0625-.515625 2.34375-.515625 2.078125 0 3.25 1.09375 1.1875 1.078125 1.1875 2.96875v6.453125h-1.609375v-1.453125h-.09375q-.4375.734375-1.3125 1.25-.875.515625-1.984375.515625zm.171875-1.5q.859375 0 1.59375-.4375.734375-.4375 1.171875-1.171875.453125-.75.453125-1.625-.484375-.3125-1.1875-.515625-.703125-.203125-1.484375-.203125-1.390625 0-2.109375.578125-.703125.578125-.703125 1.5 0 .84375.640625 1.359375.640625.515625 1.625.515625zm10.107498.546875-4.21875-9.5625h1.84375l3.203125 7.578125h.03125l3.078125-7.578125h1.84375l-6.296875 14.515625h-1.765625z" fill="#666"/><path d="m244.8 284.57184v-28.283447" fill="none"/><g stroke="#434343" stroke-linecap="butt" stroke-width="2"><path d="m244.79999 284.57184v-20.70346" fill-rule="evenodd" stroke-linejoin="round"/><path d="m244.79999 257.2884c1.8170166 0 3.2900085 1.472992 3.2900085 3.2900085 0 1.8170166-1.472992 3.289978-3.2900085 3.289978-1.8170166 0-3.2899933-1.4729614-3.2899933-3.289978s1.4729767-3.2900085 3.2899933-3.2900085z" fill="#434343"/></g></g></svg>